<?xml version="1.0" encoding="UTF-8" standalone="no"?>
<!-- Created with Inkscape (http://www.inkscape.org/) -->

<svg
   width="1080"
   height="1080"
   viewBox="0 0 285.75 285.75"
   version="1.1"
   id="svg15760"
   inkscape:version="1.2.1 (1:1.2+202205161848+dc2aedaf03)"
   sodipodi:docname="logoConcept.svg"
   inkscape:export-filename="logoBitmap.png"
   inkscape:export-xdpi="96"
   inkscape:export-ydpi="96"
   xmlns:inkscape="http://www.inkscape.org/namespaces/inkscape"
   xmlns:sodipodi="http://sodipodi.sourceforge.net/DTD/sodipodi-0.dtd"
   xmlns:xlink="http://www.w3.org/1999/xlink"
   xmlns="http://www.w3.org/2000/svg"
   xmlns:svg="http://www.w3.org/2000/svg">
  <sodipodi:namedview
     id="namedview15762"
     pagecolor="#ffffff"
     bordercolor="#666666"
     borderopacity="1.0"
     inkscape:showpageshadow="2"
     inkscape:pageopacity="0.0"
     inkscape:pagecheckerboard="0"
     inkscape:deskcolor="#d1d1d1"
     inkscape:document-units="mm"
     showgrid="false"
     inkscape:zoom="0.47314815"
     inkscape:cx="538.94325"
     inkscape:cy="540"
     inkscape:current-layer="layer1" />
  <defs
     id="defs15757">
    <clipPath
       clipPathUnits="userSpaceOnUse"
       id="clipPath1505">
      <g
         id="g1511">
        <g
           id="g1509"
           style="stroke-width:1">
          <path
             d="M 99.351011,55.056772 H 275.62837 V 165.39538 H 99.351011 Z"
             id="path1507"
             style="stroke-width:0.999999" />
        </g>
      </g>
    </clipPath>
    <linearGradient
       inkscape:collect="always"
       xlink:href="#linearGradient31283"
       id="linearGradient31285"
       x1="647.10077"
       y1="408.45663"
       x2="610.72003"
       y2="389.05881"
       gradientUnits="userSpaceOnUse"
       gradientTransform="matrix(0.99610178,0,0,0.99364871,-136.86241,77.393027)" />
    <linearGradient
       inkscape:collect="always"
       id="linearGradient31283">
      <stop
         style="stop-color:#35b9ab;stop-opacity:1"
         offset="0"
         id="stop31279" />
      <stop
         style="stop-color:#00a489;stop-opacity:1"
         offset="1"
         id="stop31281" />
    </linearGradient>
    <clipPath
       clipPathUnits="userSpaceOnUse"
       id="clipPath1374">
      <g
         id="g1380">
        <g
           id="g1378"
           style="stroke-width:1">
          <path
             d="M 99.351011,55.056772 H 275.62837 V 165.39538 H 99.351011 Z"
             id="path1376"
             style="stroke-width:0.999999" />
        </g>
      </g>
    </clipPath>
    <clipPath
       clipPathUnits="userSpaceOnUse"
       id="clipPath1389">
      <g
         id="g1395">
        <g
           id="g1393"
           style="stroke-width:1">
          <path
             d="M 99.351011,55.056772 H 275.62837 V 165.39538 H 99.351011 Z"
             id="path1391"
             style="stroke-width:0.999999" />
        </g>
      </g>
    </clipPath>
    <clipPath
       clipPathUnits="userSpaceOnUse"
       id="clipPath1479">
      <g
         id="g1485">
        <g
           id="g1483"
           style="stroke-width:1">
          <path
             d="M 99.351011,55.056772 H 275.62837 V 165.39538 H 99.351011 Z"
             id="path1481"
             style="stroke-width:0.999999" />
        </g>
      </g>
    </clipPath>
    <clipPath
       clipPathUnits="userSpaceOnUse"
       id="clipPath1434">
      <g
         id="g1440">
        <g
           id="g1438"
           style="stroke-width:1">
          <path
             d="M 99.351011,55.056772 H 275.62837 V 165.39538 H 99.351011 Z"
             id="path1436"
             style="stroke-width:0.999999" />
        </g>
      </g>
    </clipPath>
    <clipPath
       clipPathUnits="userSpaceOnUse"
       id="clipPath1464">
      <g
         id="g1470">
        <g
           id="g1468"
           style="stroke-width:1">
          <path
             d="M 99.351011,55.056772 H 275.62837 V 165.39538 H 99.351011 Z"
             id="path1466"
             style="stroke-width:0.999999" />
        </g>
      </g>
    </clipPath>
    <clipPath
       clipPathUnits="userSpaceOnUse"
       id="clipPath1449">
      <g
         id="g1455">
        <g
           id="g1453"
           style="stroke-width:1">
          <path
             d="M 99.351011,55.056772 H 275.62837 V 165.39538 H 99.351011 Z"
             id="path1451"
             style="stroke-width:0.999999" />
        </g>
      </g>
    </clipPath>
    <clipPath
       clipPathUnits="userSpaceOnUse"
       id="clipPath1419">
      <g
         id="g1425">
        <g
           id="g1423"
           style="stroke-width:1">
          <path
             d="M 99.351011,55.056772 H 275.62837 V 165.39538 H 99.351011 Z"
             id="path1421"
             style="stroke-width:0.999999" />
        </g>
      </g>
    </clipPath>
    <clipPath
       clipPathUnits="userSpaceOnUse"
       id="clipPath1404">
      <g
         id="g1410">
        <g
           id="g1408"
           style="stroke-width:1">
          <path
             d="M 99.351011,55.056772 H 275.62837 V 165.39538 H 99.351011 Z"
             id="path1406"
             style="stroke-width:0.999999" />
        </g>
      </g>
    </clipPath>
  </defs>
  <g
     inkscape:label="Layer 1"
     inkscape:groupmode="layer"
     id="layer1">
    <g
       id="g16299"
       style="stroke:none">
      <rect
         style="fill:#eef3f6;fill-opacity:1;stroke:none;stroke-width:0.705556;stroke-dasharray:2.11667, 2.11667;stroke-dashoffset:0;paint-order:markers fill stroke;stop-color:#000000"
         id="rect8746"
         width="285.75"
         height="285.75"
         x="-7.1054274e-14"
         y="0" />
      <g
         id="g6946"
         transform="matrix(0.37482652,0,0,0.37482652,-66.422558,-60.203338)"
         style="stroke-width:0.705882;stroke:none">
        <path
           id="path1106"
           clip-path="url(#clipPath1505)"
           style="fill:#173f4f;stroke-width:0.289928;stroke:none"
           d="m 228.65886,56.69853 -0.18162,0.05006 -0.0687,0.164935 c 0,0 -0.0881,4.726538 -0.1014,5.254819 -1.00632,-0.338137 -4.74557,-1.55125 -9.93974,-2.864223 -9.2591,10.811796 -10.78536,26.291342 -3.5567,38.780919 1.4156,2.44585 3.10269,4.65474 4.9994,6.61345 1.75343,-4.5098 6.59343,-3.96319 13.0196,-3.23774 2.35771,0.27544 5.04178,0.58392 7.82254,0.64562 7.75621,0.049 16.11255,-1.38323 21.26315,-3.636267 3.33219,-1.448778 5.45885,-2.412725 6.7925,-3.624079 0.47925,-0.397175 0.72694,-1.041808 0.9864,-1.735348 l 0.18162,-0.457583 c 0.21539,-0.562434 0.53248,-1.7469 0.6713,-2.396372 0.0562,-0.285898 0.0894,-0.588643 -0.11488,-0.748946 l -0.71301,0.132205 c -2.26186,1.361189 -7.91585,3.938758 -13.19865,4.048931 -6.56082,0.132759 -19.77625,-6.599418 -21.15341,-7.315544 l -0.13284,-0.153383 c -0.32446,-0.793248 -2.30785,-5.480789 -2.73202,-6.472899 9.51346,6.268856 17.40152,9.73399 23.44452,10.268331 6.7257,0.598758 11.964,-3.070347 14.20624,-4.639361 l -0.006,6.42e-4 c 0.44345,-0.293061 0.76901,-0.535803 0.90618,-0.589787 l 0.14825,-0.230396 c -0.37514,-2.357707 -3.8896,-13.788325 -6.54478,-16.537147 -0.73209,-0.749178 -1.31835,-1.487378 -2.50547,-2.18202 -9.61812,-5.60231 -32.42405,-8.984572 -33.49273,-9.138815 z m 25.49884,9.656724 c 5.377,0.192252 9.6017,4.731258 9.41991,10.102754 -0.10136,2.605597 -1.19221,5.023579 -3.0927,6.791859 -1.90599,1.790315 -4.38693,2.710414 -7.00685,2.622275 -5.37039,-0.197761 -9.59079,-4.726301 -9.409,-10.102754 h -0.005 c 0.0964,-2.605598 1.18715,-5.023846 3.09205,-6.797635 1.90599,-1.779849 4.39337,-2.699129 7.00172,-2.616499 z m -0.0796,2.875132 c -1.82392,-0.06555 -3.55346,0.57933 -4.87554,1.818778 -1.32152,1.239449 -2.10061,2.918501 -2.1557,4.73691 -0.1267,3.757458 2.81511,6.918552 6.56595,7.056269 1.82282,0.05509 3.56115,-0.589597 4.89094,-1.829047 1.32704,-1.245508 2.09016,-2.925019 2.148,-4.736268 0.1267,-3.756356 -2.81427,-6.913792 -6.57173,-7.046 z m 1.11283,3.415504 c 1.66968,0 3.02209,0.898735 3.02209,2.016443 -10e-4,1.107241 -1.35352,2.010668 -3.02209,2.010668 -1.66968,0 -3.01825,-0.903427 -3.01825,-2.010668 0,-1.117708 1.34857,-2.016443 3.01825,-2.016443 z"
           transform="matrix(3.0433378,0,0,3.0433378,-184.57952,230.73433)"
           sodipodi:nodetypes="cccccsccccccccccccccccccccccccccccccccccccccscsss" />
        <path
           id="path28214"
           style="color:#000000;fill:#173f4f;stroke-width:0.705882;stroke-linecap:round;paint-order:markers fill stroke;stroke:none"
           d="m 547.3753,375.07591 a 164.12595,156.76788 0 0 0 -0.51324,-0.0117 164.12595,156.76788 0 0 0 -2.04479,0.23438 c 0.85206,-0.0808 1.70401,-0.16116 2.55803,-0.22266 z" />
        <path
           id="path28199"
           style="color:#000000;fill:url(#linearGradient31285);fill-opacity:1;stroke-width:0.70588;stroke-linecap:round;paint-order:markers fill stroke;stroke:none"
           d="m 543.15213,376.23676 a 156.15676,155.77221 0 0 0 -15.14776,1.80681 156.15676,155.77221 0 0 0 -21.52124,5.75229 156.15676,155.77221 0 0 0 -20.4804,8.74877 156.15676,155.77221 0 0 0 -19.02516,11.56863 156.15676,155.77221 0 0 0 -17.18079,14.14979 156.15676,155.77221 0 0 0 -14.98627,16.44567 156.15676,155.77221 0 0 0 -12.48825,18.40579 156.15676,155.77221 0 0 0 -9.73533,19.99135 156.15676,155.77221 0 0 0 -6.78401,21.16937 156.15676,155.77221 0 0 0 -1.4708,8.72355 c 2.96436,18.20397 9.1836,36.08456 18.82281,52.73906 35.26896,60.93716 107.49084,90.779 175.6252,72.56741 58.62108,-15.66879 101.99822,-63.6628 112.97779,-121.57059 1.78182,-9.39755 2.74317,-19.04551 2.74317,-28.87015 a 26.5627,26.497283 0 0 0 -22.56015,-26.15897 26.5627,26.497283 0 0 0 -3.99996,-0.33962 26.5627,26.497283 0 0 0 -26.56401,26.49859 c -10e-6,46.63467 -31.19088,87.18237 -76.34771,99.25231 -45.15684,12.06994 -92.49197,-7.48882 -115.86687,-47.87562 -23.37491,-40.38681 -16.68758,-91.05769 16.36954,-124.03336 16.08172,-16.04213 36.37111,-25.80376 57.6202,-28.97108 z" />
        <path
           id="path28212"
           style="color:#000000;fill:#21a4d4;fill-opacity:1;stroke-width:0.70588;stroke-linecap:round;paint-order:markers fill stroke;stroke:none"
           d="m 556.81156,322.17412 c -39.87472,0.42661 -79.23056,16.01638 -108.8455,45.5584 -36.2459,36.15663 -51.51588,86.86373 -43.63394,135.26626 a 156.15676,155.77221 0 0 1 1.4708,-8.72355 156.15676,155.77221 0 0 1 6.78401,-21.16937 156.15676,155.77221 0 0 1 9.73533,-19.99135 156.15676,155.77221 0 0 1 12.48825,-18.40579 156.15676,155.77221 0 0 1 14.98627,-16.44567 156.15676,155.77221 0 0 1 17.18079,-14.14979 156.15676,155.77221 0 0 1 19.02516,-11.56863 156.15676,155.77221 0 0 1 20.4804,-8.74877 156.15676,155.77221 0 0 1 21.52124,-5.75229 156.15676,155.77221 0 0 1 15.14776,-1.80681 c 1.67102,-0.24908 3.3477,-0.43306 5.02915,-0.59968 a 156.15676,155.77221 0 0 1 1.94552,-0.23288 156.15676,155.77221 0 0 1 0.48832,0.0116 c 6.82119,-0.5129 13.69195,-0.36898 20.52903,0.48906 13.33391,1.67341 26.50339,5.93053 38.72929,12.97178 a 26.5627,26.497283 0 0 0 17.23724,3.08962 26.5627,26.497283 0 0 0 19.04655,-12.7874 26.5627,26.497283 0 0 0 -9.7198,-36.19638 c -24.81681,-14.29273 -52.34317,-21.10027 -79.62587,-20.80839 z m 25.43562,55.05241 a 156.15676,155.77221 0 0 1 2.40465,0.40367 156.15676,155.77221 0 0 0 -2.40465,-0.40367 z m 21.67494,5.06722 a 156.15676,155.77221 0 0 1 2.33462,0.74524 156.15676,155.77221 0 0 0 -2.33462,-0.74524 z" />
        <path
           id="path28664"
           style="fill:#eef3f6;stroke:none;stroke-width:0.941171;stroke-linecap:round;paint-order:markers fill stroke;stop-color:#000000"
           d="m 552.35395,322.25672 c -3.41541,0.13332 -6.82559,0.34013 -10.22241,0.69508 l 4.50975,43.30356 c 0.20716,1.9897 1.9466,3.42177 3.90837,3.28319 1.96181,-0.13858 3.48601,-1.80104 3.41209,-3.79961 z m 11.8517,0.008 -0.37761,9.59336 c -0.0785,1.99872 1.94328,3.68317 4.52534,3.86769 2.582,0.1847 4.82308,-1.1946 5.03148,-3.18423 l 1.00237,-9.57209 c -3.3912,-0.34504 -6.78414,-0.58121 -10.18158,-0.70473 z m 14.48118,1.17462 -3.95315,29.81725 c -0.26292,1.98323 1.30079,3.80727 3.49371,4.16858 2.19291,0.36129 4.25976,-0.86458 4.64993,-2.82701 l 5.87034,-29.52016 c -3.342,-0.65768 -6.6966,-1.20212 -10.06083,-1.63876 z m -40.87436,0.0641 c -3.39075,0.44943 -6.77158,0.97719 -10.12706,1.64657 l 5.22988,25.84468 c 0.39685,1.96049 2.51983,3.16948 4.7726,2.79388 2.25279,-0.37553 3.865,-2.20655 3.60082,-4.18997 z m 55.15312,2.51437 -5.85092,25.734 c -0.44363,1.95101 0.99773,3.92261 3.2116,4.4988 2.21377,0.57618 4.43743,-0.4408 5.00612,-2.35905 l 7.50139,-25.30495 c -3.27091,-0.96692 -6.55957,-1.82204 -9.86819,-2.5688 z m -69.51751,0.0719 c -3.32002,0.75804 -6.62087,1.601 -9.88961,2.57465 l 8.70035,28.77456 c 0.57899,1.91492 2.75675,2.93642 4.90102,2.3668 2.14425,-0.56967 3.51938,-2.53268 3.06746,-4.4812 z m 83.53739,3.7162 -13.5469,41.47654 c -0.62121,1.90198 0.39547,3.91948 2.25392,4.58997 1.8584,0.67067 3.9294,-0.23372 4.67328,-2.09107 l 16.21351,-40.48438 c -3.17159,-1.26987 -6.36994,-2.43954 -9.59381,-3.49103 z m -97.55154,0.17478 c -3.22781,1.05928 -6.42897,2.2069 -9.58988,3.4775 l 3.64372,8.96237 c 0.75359,1.85389 3.28953,2.55805 5.71845,1.66591 2.42892,-0.8921 3.90175,-3.06831 3.26994,-4.96668 z m -20.3768,8.31208 c -3.04046,1.4984 -6.0394,3.09293 -8.99038,4.79572 l 21.88535,37.7525 c 1.00385,1.73184 3.19169,2.32563 4.93792,1.39216 1.74623,-0.93336 2.45905,-3.07693 1.5688,-4.86949 z m -12.70212,7.0092 c -2.88866,1.77553 -5.72478,3.65578 -8.50968,5.63061 l 15.31426,21.55368 c 1.15931,1.63198 3.5905,1.87905 5.49854,0.62132 1.90811,-1.25769 2.63536,-3.5872 1.58437,-5.29089 z m -12.0132,8.17211 c -2.71157,2.03882 -5.35606,4.18875 -7.95108,6.42089 l 19.64118,22.78868 c 1.3071,1.51662 3.70923,1.57077 5.43815,0.18434 1.72899,-1.3862 2.19104,-3.73829 0.98686,-5.3374 z m -11.22482,9.2731 c -1.7617,1.60311 -3.50159,3.24057 -5.2008,4.93554 -0.73386,0.73204 -1.40498,1.50663 -2.12159,2.25041 l 6.95057,6.65575 c 1.07612,1.03061 2.81558,1.06264 4.37939,0.27967 0.53956,-0.26918 1.06226,-0.63592 1.53766,-1.09709 1.86252,-1.80632 2.32673,-4.39589 0.97708,-5.87519 z m -15.22085,16.04357 c -2.1776,2.63552 -4.26203,5.32419 -6.24408,8.0732 l 35.48865,25.38644 c 1.62936,1.16556 3.86518,0.81169 5.06648,-0.7495 1.20131,-1.56108 0.9634,-3.8019 -0.5859,-5.07141 z m -8.75103,11.59526 c -1.91637,2.82045 -3.71731,5.69998 -5.43235,8.62072 l 22.85848,13.35434 c 1.73042,1.011 4.04993,0.23378 5.26891,-1.69695 1.21897,-1.93076 0.91952,-4.35111 -0.74163,-5.47146 z m -7.55396,12.37967 c -1.6397,2.97948 -3.18901,5.99612 -4.62264,9.06146 l 27.30397,12.7621 c 1.81613,0.84886 4.03196,-0.0894 5.03931,-2.06581 1.00718,-1.97654 0.45924,-4.31189 -1.29831,-5.27542 z m -6.39198,12.9951 c -1.35475,3.11966 -2.59312,6.27857 -3.73709,9.46925 l 9.06639,3.26188 c 1.88611,0.67898 4.10618,-0.73303 5.0625,-3.13181 0.95641,-2.39878 0.31458,-4.94614 -1.52396,-5.7452 z m -7.30087,20.7286 c -0.90317,3.28224 -1.70807,6.58619 -2.39408,9.91577 l 42.68061,8.84983 c 1.96301,0.40688 3.86028,-0.81543 4.32486,-2.72606 0.46454,-1.91066 -0.66074,-3.86648 -2.59262,-4.40161 z m -3.20772,14.17371 c -0.59623,3.36289 -1.07129,6.743 -1.44619,10.13709 l 26.1966,2.86768 c 1.53447,0.16801 2.96359,-0.79642 3.67873,-2.25216 0.21349,-0.43551 0.36542,-0.91825 0.43984,-1.4349 0.32489,-2.25497 -0.93396,-4.34323 -2.90794,-4.69475 z m -1.88989,14.45329 c -0.2797,3.39136 -0.47362,6.7894 -0.53143,10.19537 l 30.0971,0.4368 c 2.00479,0.0291 3.63914,-1.73008 3.74491,-3.9395 0.10574,-2.20939 -1.35308,-4.10994 -3.35171,-4.27148 z m 9.10321,14.39116 -9.59176,0.12621 c 0.0363,3.39299 0.18551,6.78476 0.44369,10.17591 l 9.58607,-0.75136 c 1.99904,-0.15659 3.4389,-2.3553 3.3205,-4.93557 -0.11834,-2.58026 -1.75364,-4.64163 -3.7585,-4.61519 z m 290.90264,14.68043 c -1.99306,-0.22488 -3.82584,1.66228 -4.19835,4.21526 -0.3725,2.55289 0.84556,4.87936 2.82033,5.23063 l 10.60396,1.88726 c 0.60722,-3.34348 1.0924,-6.72101 1.48515,-10.12354 z m -255.57353,0.69514 -43.16723,6.64804 c 0.0753,0.49242 0.1165,0.98754 0.1966,1.4795 0.46415,2.85045 1.03787,5.68863 1.66222,8.51976 l 42.6709,-9.40902 c 1.95816,-0.43179 3.18362,-2.33275 2.81833,-4.2754 -0.3653,-1.94266 -2.19884,-3.26819 -4.18082,-2.96288 z m 233.38077,8.59742 c -1.96462,-0.40426 -3.90384,1.02333 -4.42223,3.18228 -0.51845,2.15889 0.56236,4.30312 2.4972,4.83067 l 30.0407,8.19161 c 0.91668,-3.26945 1.71198,-6.58011 2.41548,-9.92348 z m -246.55402,5.81509 c -0.47148,-0.0969 -0.96168,-0.0921 -1.44812,0.0291 l -25.71191,6.4073 c 0.82005,3.28276 1.7668,6.54397 2.8067,9.78568 l 25.22729,-8.04596 c 1.91005,-0.60908 2.88143,-2.84731 2.25585,-5.04239 -0.46922,-1.64626 -1.71521,-2.84303 -3.12981,-3.13371 z m 245.73067,6.5199 c -1.42737,0.22187 -2.73094,1.35739 -3.27966,2.98032 -0.73166,2.16401 0.12994,4.44774 2.0087,5.14722 l 25.60284,9.53134 c 1.21991,-3.17242 2.33854,-6.38567 3.35175,-9.64589 l -26.23744,-7.91595 c -0.47999,-0.14479 -0.97041,-0.17099 -1.44619,-0.0971 z m -238.81125,3.68121 c -0.47624,-0.0472 -0.96332,0.006 -1.43638,0.17089 l -28.48554,9.95265 c 1.12342,3.19256 2.38514,6.35164 3.72739,9.48866 l 27.73612,-11.77005 c 1.84499,-0.78295 2.62518,-3.0512 1.82374,-5.11614 -0.601,-1.54866 -1.93661,-2.58439 -3.36533,-2.72601 z m 218.86655,1.08928 c -1.40935,0.0151 -2.73435,0.84739 -3.33419,2.20368 -0.79989,1.80843 -0.0388,3.93453 1.7673,4.80162 l 40.04517,19.2238 c 1.5126,-3.04908 2.94151,-6.14158 4.25483,-9.2925 l -41.32007,-16.6687 c -0.46469,-0.18745 -0.94325,-0.27297 -1.41304,-0.26794 z m -194.64751,17.61616 c -0.46126,0.0849 -0.91454,0.26202 -1.33523,0.53389 l -36.66233,23.69534 c 1.86198,2.87428 3.80973,5.66995 5.83725,8.38967 l 35.0196,-26.07181 c 1.60674,-1.19628 1.94579,-3.42619 0.8213,-5.03854 -0.84324,-1.20917 -2.29683,-1.76489 -3.68059,-1.50855 z m -38.42581,0.58441 c -0.49285,-0.0338 -0.98076,0.0458 -1.43637,0.25435 l -8.82694,4.04047 c 1.42146,3.08024 2.9897,6.11452 4.62852,9.12552 l 8.4902,-4.59188 c 1.76292,-0.95358 2.1789,-3.55218 1.01992,-5.86753 -0.8693,-1.73651 -2.39659,-2.85968 -3.87533,-2.96093 z m 230.51184,12.34859 c -0.8346,0.0911 -1.66239,0.45687 -2.33953,1.0543 -0.21732,0.19226 -0.42081,0.40917 -0.60539,0.65043 -1.3424,1.75412 -1.22744,4.14481 0.32311,5.41319 l 23.57476,19.284 c 2.20095,-2.63711 4.30706,-5.34645 6.32968,-8.12175 l -24.90411,-17.68817 c -0.70343,-0.49959 -1.54392,-0.68328 -2.37852,-0.5922 z m 25.02866,0.56887 c -1.48096,-0.0374 -3.1068,0.93589 -4.13408,2.58236 -1.36972,2.19526 -1.19646,4.82053 0.46905,5.93354 l 8.48437,5.66948 c 1.93655,-2.81867 3.79576,-5.69206 5.54529,-8.63434 l -8.95925,-5.1646 c -0.43387,-0.25012 -0.91163,-0.37388 -1.40538,-0.38644 z m -223.09208,5.51804 c -0.982,-0.17435 -1.97746,0.0221 -2.76387,0.6427 l -20.7778,16.38708 c 2.11572,2.67869 4.28893,5.29979 6.55934,7.81495 l 19.69947,-17.73263 c 1.48882,-1.34003 1.44879,-3.77783 -0.0271,-5.51997 -0.73807,-0.87103 -1.70803,-1.41779 -2.69,-1.59212 z m 173.22934,1.2174 c -0.92125,-0.0364 -1.85414,0.27135 -2.59066,0.9242 -1.47305,1.30578 -1.66389,3.55119 -0.38145,5.08893 l 28.10401,33.69845 c 2.63982,-2.17269 5.19917,-4.43388 7.68437,-6.7684 l -30.29567,-31.80153 c -0.69061,-0.72495 -1.59935,-1.10525 -2.5206,-1.14169 z m 20.00315,4.10458 c -0.98862,0.12766 -1.98234,0.62804 -2.76007,1.46203 -1.55521,1.66793 -1.71341,4.10179 -0.29199,5.51219 l 18.94047,18.79277 c 2.43235,-2.41549 4.78416,-4.90139 7.04987,-7.46744 l -20.21139,-17.52486 c -0.75665,-0.65613 -1.73842,-0.90233 -2.72689,-0.77467 z m -182.74137,0.97469 c -0.97874,-0.0675 -1.94285,0.23207 -2.66858,0.92222 l -21.84633,20.77516 c 2.35158,2.46346 4.7775,4.84007 7.27175,7.13153 l 20.46047,-22.13432 c 1.35947,-1.47082 1.13308,-3.8608 -0.45148,-5.41514 -0.79237,-0.77714 -1.78706,-1.21202 -2.76583,-1.27948 z m 31.08204,6.82277 c -1.3851,-0.21887 -2.83361,0.36491 -3.65533,1.62123 l -23.8648,36.48078 c 2.86023,1.85075 5.76607,3.62524 8.73542,5.28315 l 21.422,-37.95262 c 0.98377,-1.74267 0.38943,-3.91871 -1.29817,-4.94136 -0.422,-0.25566 -0.87753,-0.41827 -1.33912,-0.49121 z m 90.99012,11.18366 c -0.46234,-0.0422 -0.94013,0.004 -1.40729,0.14754 -1.86844,0.57511 -2.95889,2.53154 -2.43098,4.46179 l 11.49735,42.04152 c 3.32906,-0.90516 6.61413,-1.90356 9.84098,-3.01331 l -14.3606,-41.17752 c -0.49392,-1.41666 -1.75226,-2.33325 -3.13946,-2.46001 z m 25.09297,3.78218 c -0.51125,0.0735 -1.02349,0.23784 -1.51235,0.49902 -1.95546,1.04474 -2.84358,3.27036 -1.95623,5.06373 l 13.35238,26.98245 c 3.07776,-1.49871 6.0884,-3.09561 9.04091,-4.78221 l -15.12534,-26.08152 c -0.75312,-1.29853 -2.26571,-1.90177 -3.79937,-1.68147 z m -71.80843,0.29323 c -1.96623,-0.23871 -3.78461,1.10645 -4.0913,3.08327 l -6.68591,43.09005 c 3.35213,0.52563 6.72945,0.92346 10.12131,1.23093 l 3.89073,-43.43171 c 0.17864,-1.99261 -1.2686,-3.73387 -3.23483,-3.97254 z m -80.27527,1.29117 c -1.07202,-0.0556 -2.05783,0.28126 -2.71712,1.03487 l -6.40178,7.31594 c 2.57064,2.23334 5.22325,4.35472 7.92384,6.40731 l 5.88975,-7.6771 c 1.21873,-1.58864 0.53951,-4.12699 -1.46362,-5.76072 -1.00164,-0.81685 -2.159,-1.26464 -3.23107,-1.3203 z m 37.14693,3.76282 c -1.57971,-0.17821 -3.09256,0.46887 -3.79344,1.79602 l -12.31684,23.32247 c 3.02875,1.58314 6.10828,3.06078 9.2317,4.44241 l 10.72276,-24.07004 c 0.81445,-1.8281 -0.21403,-4.03836 -2.26947,-5.03266 -0.51384,-0.24858 -1.04807,-0.39878 -1.57471,-0.45821 z m 12.08131,1.33385 c -1.54685,-0.0112 -2.96141,0.79031 -3.53272,2.17852 l -11.4292,27.77468 c 3.16249,1.29545 6.37336,2.47143 9.61521,3.55898 l 9.53729,-28.46781 c 0.63558,-1.89701 -0.54887,-3.98205 -2.62566,-4.7531 -0.51918,-0.19273 -1.04926,-0.28749 -1.56492,-0.29125 z m 94.07523,1.70866 c -0.52895,0.0307 -1.07149,0.15255 -1.59806,0.37281 -2.10579,0.88085 -3.25273,3.03146 -2.53999,4.90057 l 9.3952,24.64282 c 3.21593,-1.2077 6.37887,-2.50375 9.481,-3.90844 L 611.78522,595.6967 c -0.62738,-1.36309 -2.10172,-2.09199 -3.68837,-1.99985 z m 31.71264,2.29887 c -1.07336,-0.0505 -2.2716,0.28241 -3.35165,0.99601 -2.16009,1.42722 -3.09385,3.8831 -2.04181,5.58601 l 5.16966,8.36639 c 2.92081,-1.7781 5.76075,-3.66457 8.54465,-5.62098 l -5.71854,-8.02853 c -0.58078,-0.8153 -1.52897,-1.24839 -2.60231,-1.2989 z m -73.57387,3.69096 c -2.21664,0.13753 -3.95452,1.79438 -3.89465,3.7939 l 0.90317,30.08903 c 3.39046,-0.10336 6.78706,-0.29183 10.18743,-0.61937 l -2.85543,-29.98226 c -0.18964,-1.99117 -2.12366,-3.41879 -4.34052,-3.2813 z m -11.52449,3.84438 c -2.28716,-0.0679 -4.22622,1.4205 -4.35024,3.41722 l -1.63886,26.39998 c 3.38563,0.21263 6.78512,0.31406 10.19517,0.3048 l -0.0662,-26.45432 c -0.005,-2.00044 -1.85291,-3.59979 -4.13994,-3.66768 z m -35.39917,11.70785 c -1.77636,0.0691 -3.27149,0.95081 -3.70795,2.38628 l -2.7949,9.19346 c 3.25798,0.99387 6.5408,1.90973 9.86227,2.6911 l 2.19749,-9.409 c 0.45488,-1.94805 -1.21289,-3.98181 -3.71557,-4.65022 -0.62569,-0.16703 -1.24928,-0.23464 -1.84134,-0.21162 z m 63.28518,3.36481 c -0.58668,-0.0859 -1.21472,-0.0845 -1.85503,0.0155 -2.56057,0.39991 -4.43538,2.2457 -4.19046,4.23075 l 1.1853,9.60512 c 3.37166,-0.4197 6.74225,-0.9541 10.10959,-1.59991 l -1.81402,-9.48667 c -0.28176,-1.4735 -1.67559,-2.50838 -3.43538,-2.76482 z" />
      </g>
      <g
         aria-label="SUMMIT 2022"
         transform="scale(1.023199,0.977327)"
         id="text31453"
         style="font-weight:bold;font-size:15.2332px;line-height:1.25;font-family:Quicksand;-inkscape-font-specification:'Quicksand, Bold';fill:#21a4d4;stroke-width:0.264583;stroke:none">
        <path
           d="m 96.627493,230.42166 q -1.09679,0 -1.949849,-0.27419 -0.85306,-0.2742 -1.599486,-0.92923 -0.411297,-0.36559 -0.411297,-0.80736 0,-0.35036 0.258965,-0.60933 0.258964,-0.27419 0.624561,-0.27419 0.289431,0 0.517929,0.1828 0.609328,0.50269 1.188189,0.73119 0.578862,0.2285 1.370988,0.2285 0.853059,0 1.462387,-0.38083 0.624562,-0.38083 0.624562,-0.94446 0,-0.6855 -0.609328,-1.06633 -0.609328,-0.39606 -1.934617,-0.59409 -3.336071,-0.48746 -3.336071,-3.10757 0,-0.95969 0.502696,-1.66042 0.502696,-0.71596 1.370988,-1.08156 0.868292,-0.38083 1.934616,-0.38083 0.959692,0 1.797518,0.28943 0.853059,0.28943 1.416688,0.76166 0.441758,0.35037 0.441758,0.80736 0,0.35036 -0.25896,0.62456 -0.258964,0.25897 -0.609328,0.25897 -0.228498,0 -0.411296,-0.1371 -0.396064,-0.3199 -1.112024,-0.57886 -0.700727,-0.2742 -1.264356,-0.2742 -0.959691,0 -1.492853,0.3656 -0.517929,0.35036 -0.517929,0.92922 0,0.65503 0.533162,0.99016 0.548395,0.33513 1.706118,0.54839 1.310056,0.2285 2.086949,0.5941 0.792126,0.35036 1.188187,0.97492 0.39607,0.60933 0.39607,1.62996 0,0.95969 -0.548399,1.69088 -0.533163,0.71596 -1.431921,1.11202 -0.898759,0.38083 -1.934617,0.38083 z"
           id="path16138"
           style="stroke:none" />
        <path
           d="m 109.86512,219.59086 q 0.39606,0 0.63979,0.25896 0.24373,0.25897 0.24373,0.67026 v 5.51442 q 0,1.26436 -0.53316,2.23928 -0.53316,0.97493 -1.49285,1.52332 -0.95969,0.5484 -2.19358,0.5484 -1.23389,0 -2.20882,-0.5484 -0.95969,-0.54839 -1.49285,-1.52332 -0.53316,-0.97492 -0.53316,-2.23928 v -5.51442 q 0,-0.39606 0.27419,-0.65502 0.2742,-0.2742 0.70073,-0.2742 0.3656,0 0.6398,0.2742 0.27419,0.25896 0.27419,0.65502 v 5.51442 q 0,0.7312 0.3199,1.31006 0.3199,0.56363 0.85306,0.86829 0.5484,0.30466 1.17296,0.30466 0.65502,0 1.21865,-0.30466 0.57886,-0.30466 0.91399,-0.86829 0.35037,-0.57886 0.35037,-1.31006 v -5.51442 q 0,-0.41129 0.2285,-0.67026 0.22849,-0.25896 0.62456,-0.25896 z"
           id="path16140"
           style="stroke:none" />
        <path
           d="m 122.28017,219.59086 q 0.38083,0 0.65503,0.2742 0.28943,0.25896 0.28943,0.65502 v 8.82003 q 0,0.39606 -0.25896,0.67026 -0.25897,0.25896 -0.6855,0.25896 -0.42652,0 -0.70072,-0.25896 -0.25897,-0.25897 -0.25897,-0.67026 v -6.13898 l -2.51347,3.83876 q -0.15234,0.1828 -0.35037,0.30467 -0.19803,0.10663 -0.41129,0.0914 -0.19804,0.0152 -0.39607,-0.0914 -0.19803,-0.12187 -0.35036,-0.30467 l -2.51348,-3.97586 v 6.27608 q 0,0.41129 -0.24373,0.67026 -0.24373,0.25896 -0.6398,0.25896 -0.38083,0 -0.62456,-0.25896 -0.24373,-0.2742 -0.24373,-0.67026 v -8.82003 q 0,-0.38083 0.2742,-0.65502 0.28943,-0.2742 0.68549,-0.2742 0.2285,0 0.457,0.12187 0.2285,0.10663 0.35036,0.28943 l 3.32084,5.10312 3.41224,-5.10312 q 0.12186,-0.1828 0.3199,-0.28943 0.21326,-0.12187 0.42652,-0.12187 z"
           id="path16142"
           style="stroke:none" />
        <path
           d="m 134.75614,219.59086 q 0.38083,0 0.65503,0.2742 0.28943,0.25896 0.28943,0.65502 v 8.82003 q 0,0.39606 -0.25897,0.67026 -0.25896,0.25896 -0.68549,0.25896 -0.42653,0 -0.70073,-0.25896 -0.25896,-0.25897 -0.25896,-0.67026 v -6.13898 l -2.51348,3.83876 q -0.15233,0.1828 -0.35036,0.30467 -0.19804,0.10663 -0.4113,0.0914 -0.19803,0.0152 -0.39606,-0.0914 -0.19804,-0.12187 -0.35037,-0.30467 l -2.51348,-3.97586 v 6.27608 q 0,0.41129 -0.24373,0.67026 -0.24373,0.25896 -0.63979,0.25896 -0.38083,0 -0.62456,-0.25896 -0.24373,-0.2742 -0.24373,-0.67026 v -8.82003 q 0,-0.38083 0.27419,-0.65502 0.28943,-0.2742 0.6855,-0.2742 0.2285,0 0.45699,0.12187 0.2285,0.10663 0.35037,0.28943 l 3.32083,5.10312 3.41224,-5.10312 q 0.12187,-0.1828 0.3199,-0.28943 0.21326,-0.12187 0.42653,-0.12187 z"
           id="path16144"
           style="stroke:none" />
        <path
           d="m 139.8897,229.34011 q 0,0.39606 -0.28943,0.67026 -0.28943,0.25896 -0.67026,0.25896 -0.41129,0 -0.68549,-0.25896 -0.25897,-0.2742 -0.25897,-0.67026 v -8.80479 q 0,-0.39607 0.2742,-0.65503 0.2742,-0.2742 0.70073,-0.2742 0.38083,0 0.65503,0.2742 0.27419,0.25896 0.27419,0.65503 z"
           id="path16146"
           style="stroke:none" />
        <path
           d="m 149.18195,219.60609 q 0.4113,0 0.67026,0.24373 0.25897,0.24374 0.25897,0.6398 0,0.39606 -0.25897,0.63979 -0.25896,0.2285 -0.67026,0.2285 h -2.39161 v 7.9822 q 0,0.39606 -0.28943,0.67026 -0.28943,0.25896 -0.71596,0.25896 -0.42653,0 -0.70073,-0.25896 -0.2742,-0.2742 -0.2742,-0.67026 v -7.9822 h -2.39161 q -0.4113,0 -0.67026,-0.24373 -0.25897,-0.24373 -0.25897,-0.63979 0,-0.38083 0.25897,-0.62457 0.2742,-0.24373 0.67026,-0.24373 z"
           id="path16148"
           style="stroke:none" />
        <path
           d="m 161.68838,228.59368 q 0.3656,0 0.60933,0.24373 0.24373,0.24373 0.24373,0.60933 0,0.35036 -0.24373,0.59409 -0.24373,0.2285 -0.60933,0.2285 h -5.17929 q -0.39606,0 -0.62456,-0.24373 -0.2285,-0.24373 -0.2285,-0.62456 0,-0.38083 0.2742,-0.67026 l 3.32084,-3.54934 q 0.56363,-0.60932 0.88352,-1.21865 0.33513,-0.62456 0.33513,-1.14249 0,-0.6855 -0.48746,-1.18819 -0.48746,-0.5027 -1.12726,-0.5027 -0.44176,0 -0.89876,0.30467 -0.44176,0.28943 -0.80735,0.77689 -0.2742,0.3656 -0.70073,0.3656 -0.33513,0 -0.62456,-0.25897 -0.2742,-0.25896 -0.2742,-0.57886 0,-0.2285 0.15233,-0.457 0.15233,-0.24373 0.457,-0.54839 0.57886,-0.57886 1.34052,-0.92923 0.76166,-0.35036 1.46239,-0.35036 1.00539,0 1.76705,0.42653 0.76166,0.42653 1.17295,1.17296 0.4113,0.74642 0.4113,1.69088 0,0.92923 -0.5027,1.91939 -0.48746,0.97492 -1.32528,1.87368 l -1.93462,2.05648 z"
           id="path16150"
           style="stroke:none" />
        <path
           d="m 167.67501,230.42166 q -1.27959,0 -2.20881,-0.68549 -0.91399,-0.68549 -1.38622,-1.91938 -0.47223,-1.24912 -0.47223,-2.87908 0,-1.62995 0.47223,-2.86384 0.47223,-1.24912 1.38622,-1.93462 0.92922,-0.68549 2.20881,-0.68549 1.27959,0 2.19358,0.68549 0.92923,0.6855 1.40146,1.93462 0.47223,1.23389 0.47223,2.86384 0,1.62996 -0.47223,2.87908 -0.47223,1.23389 -1.40146,1.91938 -0.91399,0.68549 -2.19358,0.68549 z m 0,-1.82798 q 0.97493,0 1.52332,-0.92922 0.56363,-0.92923 0.56363,-2.72675 0,-1.79751 -0.56363,-2.72674 -0.54839,-0.92923 -1.52332,-0.92923 -0.97492,0 -1.53855,0.92923 -0.5484,0.92923 -0.5484,2.72674 0,1.79752 0.5484,2.72675 0.56363,0.92922 1.53855,0.92922 z"
           id="path16152"
           style="stroke:none" />
        <path
           d="m 179.20653,228.59368 q 0.36559,0 0.60932,0.24373 0.24373,0.24373 0.24373,0.60933 0,0.35036 -0.24373,0.59409 -0.24373,0.2285 -0.60932,0.2285 h -5.17929 q -0.39607,0 -0.62456,-0.24373 -0.2285,-0.24373 -0.2285,-0.62456 0,-0.38083 0.2742,-0.67026 l 3.32083,-3.54934 q 0.56363,-0.60932 0.88353,-1.21865 0.33513,-0.62456 0.33513,-1.14249 0,-0.6855 -0.48746,-1.18819 -0.48747,-0.5027 -1.12726,-0.5027 -0.44176,0 -0.89876,0.30467 -0.44176,0.28943 -0.80736,0.77689 -0.2742,0.3656 -0.70073,0.3656 -0.33513,0 -0.62456,-0.25897 -0.27419,-0.25896 -0.27419,-0.57886 0,-0.2285 0.15233,-0.457 0.15233,-0.24373 0.45699,-0.54839 0.57887,-0.57886 1.34053,-0.92923 0.76166,-0.35036 1.46238,-0.35036 1.00539,0 1.76705,0.42653 0.76166,0.42653 1.17296,1.17296 0.4113,0.74642 0.4113,1.69088 0,0.92923 -0.5027,1.91939 -0.48746,0.97492 -1.32529,1.87368 l -1.93461,2.05648 z"
           id="path16154"
           style="stroke:none" />
        <path
           d="m 187.37151,228.59368 q 0.3656,0 0.60933,0.24373 0.24373,0.24373 0.24373,0.60933 0,0.35036 -0.24373,0.59409 -0.24373,0.2285 -0.60933,0.2285 h -5.17929 q -0.39606,0 -0.62456,-0.24373 -0.2285,-0.24373 -0.2285,-0.62456 0,-0.38083 0.2742,-0.67026 l 3.32084,-3.54934 q 0.56363,-0.60932 0.88352,-1.21865 0.33514,-0.62456 0.33514,-1.14249 0,-0.6855 -0.48747,-1.18819 -0.48746,-0.5027 -1.12725,-0.5027 -0.44177,0 -0.89876,0.30467 -0.44177,0.28943 -0.80736,0.77689 -0.2742,0.3656 -0.70073,0.3656 -0.33513,0 -0.62456,-0.25897 -0.2742,-0.25896 -0.2742,-0.57886 0,-0.2285 0.15233,-0.457 0.15234,-0.24373 0.457,-0.54839 0.57886,-0.57886 1.34052,-0.92923 0.76166,-0.35036 1.46239,-0.35036 1.00539,0 1.76705,0.42653 0.76166,0.42653 1.17296,1.17296 0.41129,0.74642 0.41129,1.69088 0,0.92923 -0.50269,1.91939 -0.48747,0.97492 -1.32529,1.87368 l -1.93462,2.05648 z"
           id="path16156"
           style="stroke:none" />
      </g>
      <path
         d="m 173.16715,132.18362 c -4.28795,0 -6.64345,3.6247 -6.64345,6.13115 v 3.21706 c 0,3.69081 3.01544,5.9769 5.81164,5.9769 h 9.81645 c 1.23669,0 1.4956,0.80978 1.4956,1.49285 v 2.07622 c 0,0.22035 -0.0446,2.21448 -1.4956,2.21448 h -13.38607 c -1.33034,0 -2.29215,0.92546 -2.29215,2.19245 v 0.57345 c 0,1.26204 0.96181,2.18199 2.29215,2.18199 h 14.11321 c 3.68971,0 6.07055,-2.56704 6.07055,-6.5443 v -3.47156 c 0,-3.73433 -2.68272,-5.40345 -5.34671,-5.40345 h -9.65669 c -1.45429,0 -2.11313,-1.09072 -2.11313,-1.86193 v -1.91702 c 0,-1.2064 0.80702,-1.906 2.21724,-1.906 h 10.69232 c 1.31107,0 2.29767,-0.94198 2.29767,-2.18749 v -0.5729 c 0,-1.24992 -1.00313,-2.193 -2.34174,-2.193 h -11.52413 z"
         style="fill:#173f4f;stroke-width:0.479764;stroke:none"
         id="path1110"
         clip-path="url(#clipPath1374)"
         transform="matrix(0.70535001,0,0,0.67372784,-20.032249,101.25242)" />
      <path
         d="m 213.27025,132.18362 c -1.26754,0 -2.28885,1.03012 -2.28885,2.29767 v 16.43786 c 0,1.31712 -1.07419,2.37479 -2.37479,2.37479 h -7.45873 c -1.30501,0 -2.37369,-1.05767 -2.37369,-2.37479 v -16.43786 c 0,-1.26755 -1.03012,-2.29767 -2.29656,-2.29767 h -0.72164 c -1.28627,0 -2.29766,1.0147 -2.29766,2.29767 v 17.06034 c 0,3.97175 3.12562,6.85278 7.43119,6.85278 h 7.97655 c 4.29952,0 7.42568,-2.88048 7.42568,-6.85278 v -17.06034 c 0,-1.28297 -1.00753,-2.29767 -2.2916,-2.29767 h -0.72659 z"
         style="fill:#173f4f;stroke-width:0.479764;stroke:none"
         id="path1114"
         clip-path="url(#clipPath1389)"
         transform="matrix(0.70535001,0,0,0.67372784,-20.032249,101.25242)" />
      <path
         d="m 227.59279,132.18362 c -4.28574,0 -6.64896,3.6247 -6.64896,6.13115 v 3.21706 c 0,3.69081 3.0215,5.9769 5.81715,5.9769 h 9.81094 c 1.23835,0 1.49836,0.80978 1.49836,1.49285 v 2.07622 c 0,0.22035 -0.0446,2.21448 -1.49836,2.21448 h -13.39157 c -1.32429,0 -2.29161,0.92546 -2.29161,2.19245 v 0.57345 c 0,1.26204 0.96732,2.18199 2.29161,2.18199 h 14.11871 c 3.69081,0 6.08157,-2.56704 6.08157,-6.5443 v -3.47156 c 0,-3.73433 -2.69043,-5.40345 -5.35442,-5.40345 h -9.6567 c -1.45759,0 -2.11478,-1.09072 -2.11478,-1.86193 v -1.91702 c 0,-1.2064 0.80647,-1.906 2.21724,-1.906 h 10.69784 c 1.30775,0 2.2905,-0.94198 2.2905,-2.18749 v -0.5729 c 0,-1.24992 -1.00203,-2.193 -2.34669,-2.193 h -11.51863 z"
         style="fill:#173f4f;stroke-width:0.479764;stroke:none"
         id="path1118"
         clip-path="url(#clipPath1479)"
         transform="matrix(0.70535001,0,0,0.67372784,-20.032249,101.25242)" />
      <path
         d="m 250.12324,132.18362 c -1.2725,0 -2.23376,0.94308 -2.23376,2.193 v 21.68212 c 0,1.2444 0.93922,2.18143 2.18363,2.18143 h 17.27518 c 1.33035,0 2.29161,-0.91995 2.29161,-2.18143 v -0.57401 c 0,-1.26699 -0.96126,-2.19245 -2.29161,-2.19245 h -14.15176 v -5.51968 h 10.36731 c 1.32759,0 2.29215,-0.93097 2.29215,-2.193 v -0.5729 c 0,-1.26755 -0.96456,-2.1875 -2.29215,-2.1875 h -10.36731 v -5.68494 h 13.43013 c 1.32538,0 2.2916,-0.91389 2.2916,-2.18749 v -0.5729 c 0,-1.26755 -0.96622,-2.193 -2.2916,-2.193 h -16.50948 v 0.003 z"
         style="fill:#173f4f;stroke-width:0.479764;stroke:none"
         id="path1122"
         clip-path="url(#clipPath1434)"
         transform="matrix(0.70535001,0,0,0.67372784,-20.032249,101.25242)" />
      <path
         d="m 102.13454,154.10812 v -7.46424 c 0,-0.87533 0.71888,-1.59146 1.59806,-1.59146 h 4.11939 c 0.8599,0 1.59255,0.7321 1.59255,1.59146 v 7.46424 c 0,0.88139 -0.71337,1.59696 -1.59255,1.59696 h -4.15023 c -0.88139,0 -1.56722,-0.70015 -1.56722,-1.59696 m 1.14415,-11.61227 c -2.16546,0 -3.92768,1.6851 -3.92768,3.76242 v 8.17486 c 0,2.11037 1.70548,3.82908 3.79602,3.82908 h 5.28777 c 2.09054,0 3.79603,-1.71871 3.79603,-3.82908 v -8.17486 c 0,-2.07622 -1.76333,-3.76242 -3.92768,-3.76242 h -5.02501 z"
         style="fill:#173f4f;stroke-width:0.479764;stroke:none"
         id="path1126"
         clip-path="url(#clipPath1464)"
         transform="matrix(0.70535001,0,0,0.67372784,-20.032249,101.25242)" />
      <path
         d="m 118.91229,153.94837 v -7.13923 c 0,-0.98661 0.77121,-1.75672 1.75616,-1.75672 h 3.86213 c 0.98605,0 1.75616,0.77122 1.75616,1.75672 v 7.13923 c 0,0.96897 -0.79049,1.75616 -1.75616,1.75616 h -3.86213 c -0.96677,0 -1.75616,-0.78719 -1.75616,-1.75616 z m 5.28942,-11.54617 c -1.52425,0 -2.6739,0.54481 -3.59661,0.99101 -0.56243,0.26993 -1.0494,0.50239 -1.42729,0.50239 -0.17077,0 -0.31675,-0.0771 -0.39387,-0.20382 l -0.35201,-0.67206 c -0.0876,-0.17682 -0.44014,-0.52277 -0.87587,-0.52277 h -0.52278 c -0.50239,0 -0.90452,0.45116 -0.90452,1.00148 v 20.73462 c 0,0.65002 0.51286,1.16233 1.16233,1.16233 h 0.45226 c 0.64451,0 1.16784,-0.51781 1.16784,-1.16233 v -6.88032 c 0,-0.20382 0.13276,-0.42417 0.26662,-0.42417 0.37789,0 0.86486,0.22145 1.42729,0.47925 0.92271,0.42417 2.07236,0.94694 3.59661,0.94694 h 0.48807 c 2.69925,0 4.37884,-1.54297 4.37884,-4.02132 v -7.91596 c 0,-2.44034 -1.7154,-4.01582 -4.37884,-4.01582 h -0.48807 v -10e-4 z"
         style="fill:#173f4f;stroke-width:0.479764;stroke:none"
         id="path1130"
         clip-path="url(#clipPath1449)"
         transform="matrix(0.70535001,0,0,0.67372784,-20.032249,101.25242)" />
      <path
         d="m 135.74678,146.61633 c 0,-0.87643 0.68913,-1.56391 1.56611,-1.56391 h 4.24719 c 0.87532,0 1.5584,0.68748 1.5584,1.56391 v 2.53344 h -7.3706 c 0.001,-0.33052 0.001,-2.53344 0.001,-2.53344 z m 1.14305,-4.12048 c -2.16546,0 -3.92272,1.68455 -3.92272,3.76187 v 8.11426 c 0,2.10431 1.70823,3.88857 3.72386,3.88857 h 5.45523 c 0.67481,0 1.16233,-0.46713 1.16233,-1.10228 v -0.35752 c 0,-0.63845 -0.48752,-1.09622 -1.16233,-1.09622 h -4.48185 c -1.25598,0 -1.91867,-0.61752 -1.91867,-1.79142 v -2.37368 h 8.08672 c 1.3006,0 2.06961,-0.79325 2.06961,-2.13737 v -3.14545 c 0,-2.07621 -1.76057,-3.76242 -3.91666,-3.76242 h -5.09442 v 0.002 z"
         style="fill:#173f4f;stroke-width:0.479764;stroke:none"
         id="path1134"
         clip-path="url(#clipPath1419)"
         transform="matrix(0.70535001,0,0,0.67372784,-20.032249,101.25242)" />
      <path
         d="m 157.13693,142.4022 c -1.51984,0 -2.66675,0.54481 -3.5922,0.9866 -0.57566,0.27048 -1.06758,0.5068 -1.46916,0.5068 -0.17683,0 -0.24844,-0.022 -0.38561,-0.25946 l -0.32005,-0.58392 c -0.18344,-0.36908 -0.49523,-0.55527 -0.91665,-0.55527 h -0.4495 c -0.54261,0 -0.93868,0.42306 -0.93868,1.00203 v 13.6009 c 0,0.64396 0.509,1.16177 1.16508,1.16177 h 0.44896 c 0.64451,0 1.17004,-0.52332 1.17004,-1.16177 v -10.2902 c 0,-0.96401 0.78774,-1.75616 1.75176,-1.75616 h 3.86378 c 0.96677,0 1.75451,0.79215 1.75451,1.75616 v 10.2902 c 0,0.64396 0.51175,1.16177 1.16233,1.16177 h 0.45391 c 0.64451,0 1.16784,-0.52332 1.16784,-1.16177 v -10.68131 c 0,-2.44089 -1.71595,-4.01637 -4.3816,-4.01637 z"
         style="fill:#173f4f;stroke-width:0.479764;stroke:none"
         id="path1138"
         clip-path="url(#clipPath1404)"
         transform="matrix(0.70535001,0,0,0.67372784,-20.032249,101.25242)" />
      <g
         aria-label="ASIA"
         transform="scale(1.023199,0.97732701)"
         id="text31763"
         style="font-weight:bold;font-size:25.0979px;line-height:1.25;font-family:Quicksand;-inkscape-font-specification:'Quicksand, Bold';fill:#173f4f;stroke-width:0.264583;stroke:none">
        <path
           d="m 192.31252,210.58317 q 0.12549,0.32627 0.12549,0.60235 0,0.65254 -0.42667,1.07921 -0.42666,0.40156 -0.97881,0.40156 -0.45177,0 -0.82824,-0.27608 -0.35137,-0.27607 -0.55215,-0.75293 l -1.30509,-3.03685 h -7.47917 l -1.3051,3.06195 q -0.17568,0.47686 -0.55215,0.75293 -0.35137,0.25098 -0.77803,0.25098 -0.65255,0 -1.00392,-0.35137 -0.32627,-0.35137 -0.32627,-0.95372 0,-0.22588 0.0753,-0.47686 l 6.24938,-15.00854 q 0.20078,-0.50196 0.60235,-0.77804 0.40156,-0.27608 0.90352,-0.22588 0.45176,0 0.82823,0.27608 0.40157,0.25098 0.57725,0.72784 z m -10.21485,-4.869 h 5.01958 l -2.53489,-5.87291 z"
           id="path16129"
           style="stroke:none" />
        <path
           d="m 200.21836,212.79178 q -1.80705,0 -3.21254,-0.45176 -1.40548,-0.45176 -2.63527,-1.53097 -0.67765,-0.60235 -0.67765,-1.33019 0,-0.57725 0.42667,-1.00392 0.42666,-0.45176 1.02901,-0.45176 0.47686,0 0.85333,0.30117 1.00391,0.82824 1.95763,1.2047 0.95373,0.37647 2.25882,0.37647 1.40548,0 2.40939,-0.62745 1.02902,-0.62744 1.02902,-1.55606 0,-1.12941 -1.00392,-1.75686 -1.00391,-0.65254 -3.18743,-0.97882 -5.49644,-0.80313 -5.49644,-5.11997 0,-1.58117 0.82823,-2.73567 0.82823,-1.1796 2.25881,-1.78195 1.43058,-0.62745 3.18743,-0.62745 1.58117,0 2.96156,0.47686 1.40548,0.47686 2.3341,1.2549 0.72784,0.57725 0.72784,1.33019 0,0.57725 -0.42666,1.02901 -0.42667,0.42666 -1.00392,0.42666 -0.37647,0 -0.67764,-0.22588 -0.65255,-0.52705 -1.83215,-0.95372 -1.1545,-0.45176 -2.08313,-0.45176 -1.58116,0 -2.45959,0.60235 -0.85333,0.57725 -0.85333,1.53097 0,1.07921 0.87843,1.63137 0.90352,0.55215 2.81096,0.90352 2.15842,0.37647 3.43841,0.97882 1.3051,0.57725 1.95764,1.60626 0.65255,1.00392 0.65255,2.68548 0,1.58117 -0.90353,2.78587 -0.87842,1.1796 -2.3592,1.83214 -1.48078,0.62745 -3.18743,0.62745 z"
           id="path16131"
           style="stroke:none" />
        <path
           d="m 212.69197,211.00983 q 0,0.65255 -0.47686,1.10431 -0.47686,0.42666 -1.10431,0.42666 -0.67764,0 -1.12941,-0.42666 -0.42666,-0.45176 -0.42666,-1.10431 v -14.50659 q 0,-0.65254 0.45176,-1.07921 0.45176,-0.45176 1.1545,-0.45176 0.62745,0 1.07921,0.45176 0.45177,0.42667 0.45177,1.07921 z"
           id="path16133"
           style="stroke:none" />
        <path
           d="m 230.23539,210.58317 q 0.12549,0.32627 0.12549,0.60235 0,0.65254 -0.42667,1.07921 -0.42666,0.40156 -0.97881,0.40156 -0.45177,0 -0.82823,-0.27608 -0.35138,-0.27607 -0.55216,-0.75293 l -1.30509,-3.03685 h -7.47917 l -1.30509,3.06195 q -0.17569,0.47686 -0.55216,0.75293 -0.35137,0.25098 -0.77803,0.25098 -0.65255,0 -1.00392,-0.35137 -0.32627,-0.35137 -0.32627,-0.95372 0,-0.22588 0.0753,-0.47686 l 6.24938,-15.00854 q 0.20078,-0.50196 0.60235,-0.77804 0.40156,-0.27608 0.90352,-0.22588 0.45176,0 0.82823,0.27608 0.40157,0.25098 0.57726,0.72784 z m -10.21485,-4.869 h 5.01958 l -2.53488,-5.87291 z"
           id="path16135"
           style="stroke:none" />
      </g>
      <ellipse
         style="font-variation-settings:normal;fill:#173f4f;fill-opacity:1;stroke:none;stroke-width:0.264583;stroke-linecap:butt;stroke-linejoin:miter;stroke-miterlimit:4;stroke-dasharray:none;stroke-dashoffset:0;stroke-opacity:1;paint-order:markers fill stroke;stop-color:#000000"
         id="path31879"
         cx="175.71889"
         cy="205.0359"
         rx="3.3513489"
         ry="3.2011018" />
    </g>
  </g>
</svg>
