<?xml version="1.0" encoding="UTF-8"?>
<!DOCTYPE svg PUBLIC "-//W3C//DTD SVG 1.1//EN" "http://www.w3.org/Graphics/SVG/1.1/DTD/svg11.dtd">
<!-- Creator: CorelDRAW X7 -->
<svg xmlns="http://www.w3.org/2000/svg" xml:space="preserve" width="297mm" height="210mm" version="1.1" style="shape-rendering:geometricPrecision; text-rendering:geometricPrecision; image-rendering:optimizeQuality; fill-rule:evenodd; clip-rule:evenodd"
viewBox="0 0 29700 21000"
 xmlns:xlink="http://www.w3.org/1999/xlink">
 <defs>
  <style type="text/css">
   <![CDATA[
    .fil1 {fill:#0069AB}
    .fil0 {fill:#D70000}
    .fil2 {fill:#1A1A1A;fill-rule:nonzero}
   ]]>
  </style>
 </defs>
 <g id="Layer_x0020_1">
  <metadata id="CorelCorpID_0Corel-Layer"/>
  <g id="_1715330788448">
   <path class="fil0" d="M19989 14367c0,8 -7,15 -15,15l-7 0c-8,0 -15,-7 -15,-15l0 -126 -71 0 0 126c0,8 -7,15 -15,15l-7 0c-8,0 -14,-6 -15,-15l0 -126 -53 0c0,0 0,0 0,0 -8,0 -14,-6 -14,-13 0,0 0,0 0,-1l0 -7c0,-8 7,-13 14,-13l187 0c7,0 12,2 14,6l36 53 35 -53c3,-3 7,-6 15,-6l23 0 0 162c0,7 -7,15 -15,15l-3 -2 -6 0c-8,0 -15,-6 -15,-15l0 -105 -23 35c-3,3 -7,5 -11,5 -1,0 -1,0 -1,0l-2 0c-5,0 -10,-1 -12,-5l-24 -35 0 105 0 0zm-1816 748l0 207c0,237 -141,389 -361,389l-840 0c-79,0 -137,-55 -137,-130l0 -34c0,-75 58,-130 137,-130l797 0c86,0 89,-119 89,-132l0 -124c0,-40 -16,-88 -89,-88l-584 0c-167,0 -347,-136 -347,-356l0 -191c0,-150 142,-365 396,-365l0 1 686 0c80,0 139,57 139,130l0 34c0,75 -59,131 -136,131l-637 0c-84,0 -131,41 -131,112l0 114c0,47 39,110 125,110l575 0c159,1 318,100 318,322zm-1746 -954c77,0 137,60 137,136l0 1016c0,236 -186,408 -442,408l-475 0c-256,0 -442,-172 -442,-408l0 -1016c0,0 0,-1 0,-1 0,-75 61,-135 136,-135 0,0 0,0 0,0l44 0c0,0 0,0 0,0 75,0 136,61 136,136 0,0 0,0 0,0l0 979c0,78 63,141 141,141l444 0c78,0 141,-63 141,-141l0 -979c0,-75 61,-136 137,-136l0 0 43 0zm-1495 954l0 207c0,237 -142,389 -361,389l-841 0c-79,0 -136,-55 -136,-130l0 -34c0,-75 57,-130 136,-130l797 0c87,0 89,-119 89,-132l0 -124c0,-40 -15,-88 -89,-88l-584 0c-167,0 -346,-136 -346,-356l0 -191c0,-150 141,-365 396,-365l1 1 686 0c79,0 139,57 139,130l0 34c0,75 -59,131 -136,131l-637 0c-84,0 -132,41 -132,112l0 114c0,47 39,110 125,110l575 0c159,1 318,100 318,322l0 0zm4808 432l0 34c0,75 -57,130 -137,130l-1028 0c-75,0 -131,-56 -131,-130l0 -1290c0,-75 58,-130 133,-130l1 1 983 0c79,0 136,54 136,130l0 34c0,75 -57,130 -136,130l-800 0 0 337 617 0c79,0 137,56 137,131l0 34c0,76 -58,130 -137,130l-617 0 0 329 843 0c79,0 136,56 136,130l0 0z"/>
   <path class="fil0" d="M12826 14827c55,-26 123,-58 214,-58l27 0c159,0 261,94 261,239l0 635c0,39 -31,70 -69,70l-27 0c-39,0 -69,-31 -69,-70l0 -612c0,-57 -47,-104 -104,-104l-230 0c-57,0 -104,47 -104,104 0,0 0,0 0,0l0 612c0,39 -31,70 -69,70l-27 0c-38,0 -69,-31 -69,-70l0 -809c0,-35 24,-59 56,-59l26 0c26,0 44,11 55,33l19 34c8,15 12,15 22,15 24,0 53,-14 88,-30l0 0zm-1720 -58c159,0 261,95 261,240l0 471c0,147 -100,239 -261,239l-28 0c-91,0 -159,-32 -214,-57 -34,-15 -62,-28 -85,-28l0 0c-7,0 -15,13 -15,25l0 409c0,38 -31,69 -69,69l-27 0c-39,0 -69,-31 -69,-69l0 -1234c0,-33 24,-59 53,-59l31 0c26,0 48,20 52,31l21 40c5,7 13,11 23,11l38 83c-33,18 -54,53 -54,91 0,0 0,1 0,1l0 424 0 0c0,40 22,74 55,92l0 0c15,8 31,13 49,13l230 0c0,0 0,0 0,0 57,0 104,-47 104,-104 0,0 0,0 0,-1l0 -424c0,-58 -46,-104 -104,-104l-230 0c-18,0 -35,5 -50,12l-38 -83c23,0 51,-13 84,-29 56,-26 124,-59 215,-59l0 0 28 0zm-742 229l0 487c0,125 -101,227 -226,227l-314 0c-124,0 -225,-102 -225,-227l0 -487c0,-123 104,-223 233,-223l299 0c129,0 233,100 233,223zm-166 468l0 -444c0,-51 -43,-95 -94,-95l-246 0c-52,0 -94,43 -94,95l0 444c0,54 40,95 92,95l248 0c52,0 94,-43 94,-95l0 0zm2172 -467l0 188c0,80 -46,127 -123,127l-481 0 0 141c0,70 39,106 114,106l267 0c39,0 68,28 68,66l0 21c0,38 -29,65 -68,65l-325 0c-120,0 -222,-106 -222,-231l0 -484c0,-123 105,-223 233,-223l1 1 303 0c128,0 233,100 233,223zm-166 171l0 -150c0,-52 -41,-93 -93,-93l-253 0c-52,0 -92,42 -92,93l0 150 438 0z"/>
   <path class="fil1" d="M15413 5985l-563 -2100 -563 2100c182,-36 370,-55 563,-55 193,0 381,19 563,55zm-1408 2727l0 -378 -241 0 0 385c78,-3 159,-6 241,-7zm0 -407l0 -373 -241 0 0 373 241 0zm0 -404l0 -375 -241 0 0 375 241 0zm30 -375l0 375 224 0 57 -333 -30 0c0,0 0,-9 0,-20 0,-11 -13,-22 -30,-22l-221 0zm0 406l0 373 224 0 40 -373 -264 0zm0 402l0 378c72,-1 146,0 218,2l59 -380c-90,0 -183,0 -277,0zm-301 386l0 -386c-95,0 -189,0 -281,0l60 399c68,-5 143,-9 221,-13zm0 -415l0 -373 -268 0 41 373 227 0zm0 -404l0 -375 -206 0 -2 0 -2 0 -1 0 -2 0 -2 0 -1 0 -1 0 -1 0 -1 0 -1 0 -1 0c-17,0 -30,11 -30,22 0,11 0,20 0,20l-30 0 54 333 227 0zm316 -882l0 184 0 22c0,16 -13,29 -29,29l-16 0 0 135 0 0 0 18c0,0 89,0 104,0l27 0c10,0 18,9 18,19l0 53c0,9 -7,16 -16,18l0 0 -2 0 -101 0 -30 0 -241 0 -30 0 -101 0 -2 0 0 0c-9,-2 -16,-9 -16,-18l0 -53c0,-10 8,-19 18,-19l27 0c15,0 104,0 104,0l0 -18 0 0 0 -135 -16 0c-16,0 -29,-13 -29,-29l0 -22 0 -184c0,-16 13,-29 29,-29l16 0 0 -166c0,-5 4,-9 9,-9 26,0 52,0 77,0l0 0 0 -15 -21 0c-3,0 -6,-3 -6,-6 0,-7 0,-15 0,-23l-34 0c-6,0 -10,-4 -10,-10l0 0c0,-18 0,-36 0,-54l74 -34c0,-224 0,-430 0,-654l-1472 -1472 563 2100c245,-215 527,-389 835,-512l0 466c-826,399 -1396,1244 -1396,2222 0,37 2,101 4,137 -155,58 -340,152 -410,200 -40,-289 -21,-615 35,-900l-2100 563 1826 490c-330,247 -715,749 -533,1347l-632 632 848 -227c338,383 1029,435 1300,-20 136,-230 54,-482 54,-479l259 112c-14,-58 -21,-91 -42,-147 -114,-302 -351,-506 -637,-562 -282,-54 -562,29 -708,303 -70,133 -68,290 -14,426 94,236 327,370 578,341 166,-19 294,-115 310,-290 6,-58 -4,-116 -30,-168 -81,-164 -343,-276 -447,-118 -54,83 -3,205 136,169 179,-57 238,166 62,220 -46,15 -86,22 -126,22 -138,0 -329,-118 -332,-341 -1,-125 62,-240 173,-313 127,-85 348,-113 553,12 520,319 280,1155 -468,1088 -214,-19 -416,-119 -557,-272 -57,-62 -108,-138 -143,-215 -729,-1617 2302,-2321 3649,-1847 0,-16 3,-162 3,-162l2 -5 6 -1c33,5 736,109 1032,281 36,22 54,44 77,68 82,84 190,436 202,509l-5 7c-4,2 -14,10 -28,19 -69,48 -230,161 -437,142 -186,-16 -430,-123 -723,-316 13,31 74,175 85,199l4 5c42,22 449,230 651,226 163,-4 337,-83 407,-125l0 0 22 -4c6,5 5,14 3,23 -4,20 -14,56 -20,74l-6 14c-8,21 -15,41 -30,53 -41,37 -107,67 -209,112 -159,70 -416,113 -655,112 -86,-2 -169,-12 -242,-20 -222,-25 -383,-43 -416,159 -29,174 93,449 211,578 -171,-31 -434,-197 -551,-330 -24,-27 -52,-59 -84,-96 -227,-262 -492,-297 -697,-247 -49,12 -113,48 -154,89 -103,101 -99,299 -85,434 415,318 933,506 1496,506 1362,0 2467,-1104 2467,-2467 0,-1362 -1105,-2466 -2467,-2466 -331,0 -646,65 -934,183l0 133 74 34c0,18 0,36 0,54l0 0c0,6 -4,10 -10,10l-35 0c0,8 0,16 0,23 0,3 -2,6 -5,6l-21 0 0 15c26,0 51,0 77,0 5,0 9,4 9,9l0 166 16 0c16,0 29,13 29,29zm-1376 -102l-2101 -563 1537 1537c124,-362 317,-692 564,-974zm126 3671c-3,-13 -4,-18 0,0zm144 411l-563 2101 1537 -1537c-362,-124 -693,-317 -974,-564zm1343 662l563 2101 563 -2101c-182,36 -370,55 -563,55 -193,0 -381,-19 -563,-55zm1495 -98l1537 1537 -563 -2101c-282,247 -612,440 -974,564zm1244 -833l2101 563 -1538 -1538c-123,363 -316,693 -563,975zm662 -1344l2100 -563 -2100 -563c36,183 55,371 55,563 0,193 -19,381 -55,563zm-99 -1495l1538 -1537 -2101 563c247,282 440,612 563,974zm-833 -1244l563 -2101 -1537 1538c362,123 692,316 974,563zm-960 2542c120,0 216,97 216,217 0,119 -96,216 -216,216 -120,0 -216,-97 -216,-216 0,-120 96,-217 216,-217zm39 107c52,0 95,29 95,64 0,35 -43,63 -95,63 -53,0 -95,-28 -95,-63 0,-35 42,-64 95,-64zm243 131c5,-166 -125,-306 -291,-311 -3,-1 -7,-1 -11,-1 -76,0 -149,29 -204,81 -59,55 -93,129 -95,209 -6,166 124,306 290,312 80,2 157,-26 215,-81 59,-55 93,-129 96,-209l0 0z"/>
   <path class="fil2" d="M13988 16466l112 0 -198 -463 -107 0 -201 463 108 0 36 -90 214 0 36 90zm-216 -174l74 -180 72 180 -146 0zm598 -77l35 -70c-39,-25 -89,-39 -138,-39 -78,0 -140,37 -140,111 0,125 184,94 184,151 0,19 -19,28 -45,28 -39,0 -87,-16 -124,-44l-33 68c41,33 97,50 154,50 81,0 145,-38 145,-111 1,-126 -187,-99 -187,-152 0,-19 17,-27 41,-27 30,0 69,13 108,35zm157 -257c-29,0 -49,22 -49,51 0,29 20,51 49,51 29,0 50,-22 50,-51 0,-29 -21,-51 -50,-51zm-51 152l0 356 102 0 0 -356 -102 0zm506 356l-1 -232c0,-80 -55,-128 -151,-128 -62,0 -107,15 -160,41l32 70c37,-20 74,-31 105,-31 49,0 74,22 74,60l0 6 -97 0c-88,1 -136,41 -136,108 0,64 46,111 122,111 50,0 88,-17 112,-47l0 42 100 0zm-183 -68c-35,0 -56,-18 -56,-45 0,-28 19,-40 58,-40l80 0 0 31c-5,31 -39,54 -82,54zm776 -263l40 -86c-46,-30 -111,-50 -176,-50 -107,0 -179,53 -179,136 0,164 247,114 247,201 0,28 -26,44 -69,44 -49,0 -116,-27 -164,-69l-42 85c53,44 129,73 205,73 102,0 181,-49 181,-139 0,-167 -246,-119 -246,-204 0,-26 24,-38 59,-38 37,0 95,18 144,47zm351 -25l0 176c0,52 -30,90 -79,91 -41,0 -67,-27 -67,-72l0 -195 -102 0 0 224c0,84 50,136 129,136 53,0 94,-22 119,-67l0 63 101 0 0 -356 -101 0zm670 -4c-60,1 -105,28 -128,82 -17,-51 -60,-82 -121,-82 -53,1 -95,22 -120,66l0 -62 -102 0 0 356 102 0 0 -176c0,-51 30,-90 79,-90 42,0 68,27 68,72l0 194 102 0 0 -176c0,-51 29,-90 78,-90 43,0 69,27 69,72l0 194 101 0 0 -223c0,-84 -49,-137 -128,-137zm687 0c-60,1 -105,28 -129,82 -17,-51 -60,-82 -120,-82 -53,1 -95,22 -120,66l0 -62 -102 0 0 356 102 0 0 -176c0,-51 30,-90 79,-90 42,0 68,27 68,72l0 194 101 0 0 -176c0,-51 30,-90 79,-90 42,0 69,27 69,72l0 194 101 0 0 -223c0,-84 -50,-137 -128,-137zm267 -148c-29,0 -50,22 -50,51 0,29 21,51 50,51 29,0 49,-22 49,-51 0,-29 -20,-51 -49,-51zm-51 152l0 356 102 0 0 -356 -102 0zm398 261c-18,9 -34,14 -47,14 -22,0 -35,-12 -35,-41l0 -147 97 0 0 -71 -97 0 0 -98 -101 0 0 98 -49 0 0 70 49 0 0 165c0,73 49,110 112,110 33,0 66,-10 93,-25l-22 -75zm435 -154l-171 177 0 72 348 0 0 -88 -213 0 108 -106c51,-53 88,-105 88,-154 0,-73 -65,-120 -158,-120 -65,0 -128,26 -185,69l41 78c42,-36 89,-58 129,-58 40,0 64,17 64,47 0,22 -21,54 -51,83zm409 -218c-115,0 -179,84 -179,235 0,151 64,235 179,235 115,0 179,-84 179,-235 0,-151 -64,-235 -179,-235zm0 77c53,0 78,48 78,158 0,110 -25,158 -78,158 -53,0 -78,-48 -78,-158 0,-110 25,-158 78,-158zm269 -73l0 88 92 0 0 375 105 0 0 -463 -197 0zm546 -5c-97,0 -158,46 -158,120 0,41 24,78 65,100 -54,21 -89,66 -89,119 0,82 71,134 183,134 112,0 182,-53 182,-136 0,-53 -32,-96 -83,-117 37,-20 60,-55 60,-96 0,-76 -62,-124 -160,-124zm1 72c46,0 71,21 71,57 0,36 -25,56 -71,56 -46,0 -72,-20 -72,-56 0,-36 26,-57 72,-57zm-1 192c55,0 86,24 86,65 0,41 -31,65 -85,65 -54,0 -85,-24 -85,-66 0,-41 31,-64 84,-64z"/>
   <path class="fil2" d="M16835 16753l0 55 87 0 0 229 63 0 0 -229 87 0 0 -55 -237 0zm449 284l0 -142c-1,-49 -34,-79 -93,-79 -38,0 -66,9 -98,26l20 42c22,-12 45,-19 64,-19 30,0 46,14 46,37l0 4 -60 0c-54,0 -83,25 -83,65 0,40 28,68 75,68 30,0 53,-10 68,-28l0 26 61 0zm-112 -42c-21,0 -34,-11 -34,-28 0,-17 12,-24 36,-24l49 0 0 19c-4,19 -25,33 -51,33zm197 -269c-18,0 -30,13 -30,31 0,18 12,31 30,31 18,0 30,-13 30,-31 0,-18 -12,-31 -30,-31zm-31 93l0 218 62 0 0 -218 -62 0zm255 -2c-29,0 -53,12 -69,34l0 -32 -62 0 0 296 62 0 0 -110c16,22 40,34 70,34 62,0 102,-44 102,-110 0,-67 -42,-112 -103,-112zm-14 170c-32,0 -55,-24 -55,-60 0,-35 23,-60 55,-60 32,0 53,25 53,60 0,36 -21,60 -53,60zm251 -170c-66,0 -112,44 -112,112 0,65 44,110 114,110 39,0 71,-14 93,-38l-33 -34c-15,15 -34,23 -55,23 -28,0 -49,-16 -56,-43l156 0c5,-80 -30,-130 -107,-130zm-50 93c5,-29 23,-47 51,-47 28,0 47,18 48,47l-99 0zm230 -184c-18,0 -31,13 -31,31 0,18 13,31 31,31 17,0 30,-13 30,-31 0,-18 -13,-31 -30,-31zm-32 93l0 218 63 0 0 -218 -63 0zm140 157c-17,0 -31,13 -31,32 0,10 4,19 13,25l-17 41 30 0 27 -41c5,-7 9,-15 9,-25 0,-20 -14,-32 -31,-32zm171 -223l0 55 86 0 0 229 64 0 0 -229 87 0 0 -55 -237 0zm449 284l0 -142c-1,-49 -35,-79 -93,-79 -38,0 -66,9 -98,26l19 42c23,-12 46,-19 65,-19 30,0 45,14 45,37l0 4 -60 0c-53,0 -83,25 -83,65 0,40 29,68 75,68 31,0 54,-10 69,-28l0 26 61 0zm-112 -42c-21,0 -34,-11 -34,-28 0,-17 11,-24 35,-24l49 0 0 19c-3,19 -24,33 -50,33zm197 -269c-18,0 -31,13 -31,31 0,18 13,31 31,31 18,0 30,-13 30,-31 0,-18 -12,-31 -30,-31zm-31 93l0 218 62 0 0 -218 -62 0zm91 0l79 218 63 0 46 -144 47 144 62 0 80 -218 -62 0 -48 156 -47 -156 -61 0 -47 156 -49 -156 -63 0zm586 218l-1 -142c0,-49 -34,-79 -92,-79 -38,0 -66,9 -98,26l19 42c23,-12 45,-19 65,-19 30,0 45,14 45,37l0 4 -60 0c-53,0 -83,25 -83,65 0,40 29,68 75,68 30,0 54,-10 68,-28l0 26 62 0zm-113 -42c-21,0 -34,-11 -34,-28 0,-17 12,-24 36,-24l49 0 0 19c-4,19 -24,33 -51,33zm304 -179c-34,1 -60,14 -75,41l0 -38 -63 0 0 218 63 0 0 -108c0,-32 18,-55 49,-55 27,0 43,17 43,44l0 119 63 0 0 -137c0,-51 -32,-84 -80,-84z"/>
  </g>
 </g>
</svg>
